<?xml version="1.0" standalone="no"?>
<svg viewBox="0 0 200 200" xmlns="http://www.w3.org/2000/svg">
  <path fill="#DA0037" d="M37.5,-67.6C43.2,-61.8,38.5,-40.7,44.1,-26.8C49.6,-13,65.4,-6.5,69.3,2.3C73.2,11,65.3,22.1,54.1,26.1C42.9,30,28.3,26.9,18.7,36.6C9.2,46.2,4.6,68.5,-5.1,77.3C-14.8,86.1,-29.5,81.4,-32.5,68C-35.5,54.6,-26.7,32.5,-30.6,19.7C-34.5,6.9,-51,3.4,-55.9,-2.8C-60.8,-9.1,-54,-18.2,-44.4,-21.1C-34.9,-24.1,-22.6,-20.9,-14.7,-25.4C-6.8,-29.9,-3.4,-42.1,6.3,-53C15.9,-63.9,31.9,-73.4,37.5,-67.6Z" transform="translate(100 100)" />
</svg>
